<?xml version="1.0" standalone="no"?>
<!DOCTYPE svg PUBLIC "-//W3C//DTD SVG 20010904//EN"
 "http://www.w3.org/TR/2001/REC-SVG-20010904/DTD/svg10.dtd">
<svg version="1.0" xmlns="http://www.w3.org/2000/svg"
 width="1280.000000pt" height="1024.000000pt" viewBox="0 0 1280.000000 1024.000000"
 preserveAspectRatio="xMidYMid meet">
<metadata>
Created by potrace 1.16, written by Peter Selinger 2001-2019
</metadata>
<g transform="translate(0.000000,1024.000000) scale(0.100000,-0.100000)"
fill="#000000" stroke="none">
<path d="M8980 8693 l0 -798 -233 233 -232 232 -230 -230 -230 -230 624 -624
c456 -456 629 -623 646 -623 17 0 190 167 646 623 l624 624 -230 230 -230 230
-252 -252 -253 -253 0 818 0 817 -325 0 -325 0 0 -797z"/>
<path d="M5985 9090 c-1216 -76 -2330 -650 -3079 -1589 -1120 -1403 -1245
-3345 -315 -4880 293 -483 726 -943 1198 -1275 586 -411 1279 -667 2026 -748
180 -20 693 -17 875 5 857 102 1609 420 2259 956 164 135 449 422 577 581 539
669 841 1399 940 2265 24 209 24 691 0 900 -20 180 -56 394 -91 542 -40 170
-97 353 -109 353 -22 0 -616 -202 -616 -209 0 -4 8 -32 19 -62 28 -83 87 -320
110 -444 154 -827 2 -1708 -419 -2440 -263 -459 -647 -876 -1080 -1176 -481
-334 -1049 -547 -1655 -621 -147 -18 -643 -18 -790 0 -1067 131 -1994 690
-2587 1562 -444 652 -668 1453 -620 2222 57 923 436 1755 1088 2388 922 895
2233 1234 3466 896 67 -19 129 -36 136 -38 10 -2 42 84 113 302 54 168 99 307
99 310 0 8 -239 74 -375 105 -140 32 -397 71 -545 84 -176 15 -469 20 -625 11z"/>
<path d="M4820 6885 l0 -325 268 0 c147 0 306 -5 352 -10 376 -46 682 -277
833 -627 l26 -63 -719 0 -720 0 0 -325 0 -325 720 0 719 0 -15 -41 c-26 -77
-98 -200 -162 -280 -150 -187 -380 -322 -619 -364 -63 -11 -165 -15 -389 -15
l-304 0 0 -325 0 -325 193 -2 192 -3 869 -910 c478 -500 899 -941 937 -979
l68 -70 183 176 c101 96 207 197 236 224 l54 49 -779 819 -778 819 125 63
c311 157 588 441 740 758 53 111 102 249 121 344 l13 62 323 0 323 0 0 325 0
325 -324 0 -324 0 -6 38 c-27 152 -146 427 -250 577 l-55 80 469 3 470 2 0
325 0 325 -1395 0 -1395 0 0 -325z"/>
</g>
</svg>
