<?xml version="1.0" standalone="no"?>
<!DOCTYPE svg PUBLIC "-//W3C//DTD SVG 20010904//EN"
 "http://www.w3.org/TR/2001/REC-SVG-20010904/DTD/svg10.dtd">
<svg version="1.0" xmlns="http://www.w3.org/2000/svg"
 width="1277.000000pt" height="1021.000000pt" viewBox="0 0 1277.000000 1021.000000"
 preserveAspectRatio="xMidYMid meet">
<metadata>
Created by potrace 1.16, written by Peter Selinger 2001-2019
</metadata>
<g transform="translate(0.000000,1021.000000) scale(0.100000,-0.100000)"
fill="#000000" stroke="none">
<path d="M8627 9012 c-339 -339 -617 -622 -617 -627 0 -6 101 -111 225 -235
l225 -225 230 230 230 230 0 -793 0 -792 325 0 325 0 0 807 0 808 243 -243
c133 -133 247 -242 252 -242 13 0 455 442 455 455 0 19 -1237 1248 -1245 1236
-4 -8 -11 -9 -19 -2 -9 7 -179 -157 -629 -607z"/>
<path d="M5980 8999 c-1131 -52 -2206 -570 -2962 -1429 -858 -973 -1217 -2278
-982 -3570 179 -982 728 -1899 1513 -2524 630 -502 1349 -801 2171 -903 202
-25 744 -25 940 0 608 77 1126 245 1620 525 323 183 591 386 869 657 703 687
1125 1550 1247 2550 21 178 30 622 15 810 -26 331 -84 638 -178 941 l-25 82
-310 -104 c-171 -57 -312 -105 -314 -107 -2 -1 12 -50 31 -109 161 -508 197
-1103 100 -1668 -84 -495 -300 -1010 -599 -1434 -235 -335 -564 -661 -896
-889 -735 -504 -1642 -722 -2510 -602 -1516 210 -2729 1348 -3034 2846 -85
415 -90 911 -16 1330 198 1103 907 2061 1901 2564 816 413 1708 503 2594 260
70 -19 129 -34 130 -33 9 10 186 611 181 615 -11 12 -282 84 -424 113 -205 41
-428 68 -665 80 -111 5 -209 9 -217 8 -8 0 -89 -4 -180 -9z"/>
<path d="M4780 6805 l0 -325 313 0 c265 0 325 -3 402 -19 331 -69 608 -296
736 -603 l28 -68 -715 0 -714 0 0 -320 0 -320 715 0 714 0 -33 -80 c-49 -115
-132 -234 -228 -325 -97 -93 -167 -142 -283 -196 -168 -79 -309 -99 -692 -99
l-243 0 0 -320 0 -320 188 0 187 0 930 -975 c512 -536 932 -974 935 -974 3 0
110 102 239 227 l235 228 -772 804 c-425 441 -772 806 -772 810 0 4 19 15 43
25 146 58 341 196 492 349 204 205 352 466 425 749 l23 87 309 0 308 0 0 325
0 325 -308 0 -308 0 -22 90 c-45 185 -126 368 -234 528 l-49 72 461 0 460 0 0
325 0 325 -1385 0 -1385 0 0 -325z"/>
</g>
</svg>
